<svg width="61" height="56" viewBox="0 0 61 56" fill="none" xmlns="http://www.w3.org/2000/svg">
<rect width="61" height="56" fill="#E5E5E5"/>
<g id="projects" clip-path="url(#clip0_0_1)">
<rect width="1900" height="6059" transform="translate(-437 -535)" fill="white"/>
<rect id="Rectangle 117" x="-52" y="-30" width="456" height="465" fill="#EFEBDE"/>
<g id="Group">
<path id="Vector" d="M52.7587 56C37.9225 56 23.095 56 8.25887 56C3.72218 56 0.0262742 52.3478 0 47.8024V21.6595C0 17.1053 3.70467 13.3919 8.23259 13.3919C8.74056 13.3919 9.15219 13.8035 9.15219 14.3115L9.14343 22.0799C13.3999 22.0799 17.6475 22.0799 21.8952 22.0799L26.0465 10.3441C26.0991 8.68007 27.0449 7.17368 28.4988 6.40297V1.32328C28.4988 0.815316 28.9104 0.403687 29.4184 0.403687H31.7831C32.291 0.403687 32.6939 0.815316 32.6939 1.32328V6.30663C34.2528 7.05107 35.2775 8.61 35.3301 10.3441L39.4814 22.0799H51.8478V14.3115C51.8478 13.8035 52.2507 13.3919 52.7587 13.3919C57.2866 13.3919 60.9737 17.0615 60.9912 21.5895L61 47.7586C60.8949 52.4354 57.4355 55.8949 52.7587 56ZM30.8722 5.85121V2.23412H30.3292V5.85121C30.5044 5.85121 30.6883 5.85121 30.8722 5.85121ZM30.6182 7.68165C29.0943 7.71668 27.8682 8.96909 27.8682 10.5017C27.8682 12.0519 29.1381 13.3218 30.6883 13.3218C32.2472 13.3218 33.5084 12.0519 33.5084 10.5017C33.5084 8.88151 32.2122 7.68165 30.6182 7.68165ZM21.1157 29.752C21.8777 29.8483 22.517 30.1987 23.0425 30.7592C23.349 30.6628 23.6556 30.6628 23.9621 30.7154C25.8013 25.4693 27.6317 20.2232 29.4622 14.9771C28.4637 14.7056 27.5704 14.0926 26.9486 13.2518L21.1157 29.752ZM23.8658 32.5546C23.8833 32.6772 23.892 32.7911 23.892 32.9137C23.892 34.0522 23.2702 35.1119 22.2981 35.6725L19.4867 42.9329C19.1276 43.8613 17.7263 43.6073 17.7263 42.6089L17.7526 34.1661C17.5862 33.7807 17.4986 33.3603 17.4986 32.9137C17.4986 31.7926 18.0854 30.7592 19.0313 30.1899L21.2559 23.9016C17.2184 23.9016 13.1809 23.9016 9.14343 23.9016V40.2792C9.11716 40.8485 8.89821 41.3389 8.23259 41.3389C4.69433 41.3389 1.82168 44.2116 1.82168 47.7586C1.82168 51.2969 4.69433 54.1695 8.23259 54.1695C23.0688 54.1695 37.8962 54.1695 52.7324 54.1695C56.2882 54.1695 59.1696 51.3144 59.1696 47.7586C59.1696 44.2116 56.2969 41.3389 52.7587 41.3389C52.2507 41.3389 51.8478 40.9361 51.8478 40.4281V23.9016H40.1295L44.6662 36.7585C44.7275 36.9161 44.7363 37.0738 44.7012 37.2314L43.6415 42.7753C43.4663 43.6949 42.1789 43.7737 41.8811 42.8891C40.5762 39.5348 39.2975 36.1717 37.975 32.8261C37.8612 32.5633 37.7035 32.4582 37.2218 32.6772C36.7576 32.8786 36.2234 32.6772 36.022 32.213L33.1143 23.9016H28.2711L25.3634 32.213C25.0306 32.9662 24.4263 32.7473 23.8658 32.5546ZM20.1961 36.0753C19.9772 36.0403 19.767 35.979 19.5655 35.9089V37.7043L20.1961 36.0753ZM20.6953 31.5474C19.9509 31.5474 19.3203 32.143 19.3203 32.9137C19.3203 33.6756 19.9334 34.2887 20.6953 34.2887C21.4485 34.2887 22.0616 33.6756 22.0616 32.9137C22.0616 32.178 21.4748 31.5474 20.6953 31.5474ZM34.428 13.2518C33.8062 14.0926 32.9304 14.7056 31.9144 14.9771L37.4057 30.6891C38.6056 30.4089 39.1486 30.9956 39.6391 32.0816C40.5849 34.4901 41.5133 36.9073 42.4504 39.3246L42.8708 37.1263L34.428 13.2518ZM30.6883 16.9827L28.9104 22.0799H32.4749L30.6883 16.9827ZM7.32175 39.5698C7.32175 31.4773 7.32175 23.3761 7.32175 15.2837C4.16884 15.7391 1.82168 18.4453 1.82168 21.6333V42.5913C3.18794 40.901 5.15851 39.8063 7.32175 39.5698ZM53.6695 39.5698C55.824 39.8063 57.8121 40.901 59.1696 42.5913V21.6595C59.1696 18.4541 56.8487 15.7391 53.6695 15.2837C53.6695 23.3761 53.6695 31.4773 53.6695 39.5698Z" fill="black"/>
</g>
</g>
<defs>
<clipPath id="clip0_0_1">
<rect width="1900" height="6059" fill="white" transform="translate(-437 -535)"/>
</clipPath>
</defs>
</svg>
