<svg width="182" height="70" viewBox="0 0 182 70" fill="none" xmlns="http://www.w3.org/2000/svg">
<path d="M0 56.1977V34.1277H15.0221V38.2638H5.36031V43.5248H13.6986V47.727H5.36031V56.1977H0Z" fill="#FFF4DE"/>
<path d="M84.0337 56.1977V34.1277H89.394V43.0616H97.5006V34.1277H102.828V56.1977H97.5006V47.4292H89.394V56.1977H84.0337Z" fill="#FFF4DE"/>
<path d="M113.471 56.6939C110.648 56.6939 108.519 55.9439 107.085 54.4439C105.674 52.9219 104.968 50.6939 104.968 47.7601C104.968 44.6057 105.685 42.3446 107.119 40.977C108.574 39.5873 110.692 38.8924 113.471 38.8924C115.346 38.8924 116.913 39.2123 118.17 39.852C119.449 40.4696 120.409 41.4292 121.049 42.7307C121.71 44.0321 122.041 45.7086 122.041 47.7601C122.041 50.6939 121.302 52.9219 119.824 54.4439C118.346 55.9439 116.229 56.6939 113.471 56.6939ZM113.471 52.7564C114.288 52.7564 114.96 52.5689 115.49 52.1939C116.041 51.7969 116.449 51.2344 116.714 50.5064C117.001 49.7564 117.144 48.841 117.144 47.7601C117.144 46.5248 117.001 45.5542 116.714 44.8483C116.449 44.1204 116.041 43.602 115.49 43.2932C114.938 42.9623 114.266 42.7968 113.471 42.7968C112.633 42.7968 111.949 42.9623 111.42 43.2932C110.891 43.6241 110.494 44.1535 110.229 44.8814C109.986 45.5873 109.865 46.5469 109.865 47.7601C109.865 49.4366 110.152 50.6939 110.725 51.5322C111.321 52.3483 112.236 52.7564 113.471 52.7564Z" fill="#FFF4DE"/>
<path d="M131.66 56.694C130.116 56.694 128.748 56.4513 127.557 55.966C126.366 55.4807 125.439 54.7418 124.777 53.7491C124.116 52.7344 123.785 51.4219 123.785 49.8116V39.455H128.715V49.4145C128.715 50.4734 128.946 51.2675 129.41 51.7969C129.895 52.3043 130.656 52.5579 131.693 52.5579C132.752 52.5579 133.513 52.3043 133.976 51.7969C134.439 51.2675 134.671 50.4734 134.671 49.4145V39.455H139.303V49.8116C139.303 52.194 138.619 53.9366 137.252 55.0396C135.884 56.1425 134.02 56.694 131.66 56.694Z" fill="#FFF4DE"/>
<path d="M146.868 56.694C145.676 56.694 144.651 56.5616 143.79 56.2969C142.952 56.0543 142.158 55.7785 141.408 55.4697V51.1351C141.871 51.444 142.39 51.7638 142.963 52.0947C143.537 52.4035 144.165 52.6572 144.849 52.8557C145.555 53.0543 146.294 53.1535 147.066 53.1535C147.86 53.1535 148.412 53.0212 148.72 52.7565C149.051 52.4697 149.217 52.1278 149.217 51.7307C149.217 51.3557 149.051 51.0579 148.72 50.8374C148.39 50.5947 147.959 50.3962 147.43 50.2418C146.901 50.0874 146.338 49.944 145.743 49.8116C145.213 49.7013 144.684 49.5359 144.154 49.3153C143.625 49.0726 143.151 48.7528 142.732 48.3557C142.312 47.9587 141.97 47.4734 141.706 46.8998C141.463 46.3043 141.342 45.5873 141.342 44.7491C141.342 43.6682 141.551 42.7748 141.97 42.0689C142.39 41.341 142.941 40.7564 143.625 40.3153C144.309 39.8741 145.048 39.5653 145.842 39.3888C146.636 39.1903 147.408 39.102 148.158 39.1241C149.526 39.1682 150.607 39.3226 151.401 39.5873C152.217 39.83 152.956 40.1498 153.618 40.5469V44.4182C152.868 43.9991 152.118 43.6131 151.368 43.2601C150.64 42.8851 149.801 42.6976 148.853 42.6976C147.993 42.6976 147.375 42.83 147 43.0947C146.625 43.3594 146.437 43.7123 146.437 44.1535C146.437 44.5726 146.559 44.9035 146.801 45.1462C147.066 45.3888 147.408 45.5873 147.827 45.7417C148.246 45.8741 148.709 46.0065 149.217 46.1388C149.768 46.2712 150.331 46.4366 150.904 46.6351C151.5 46.8116 152.051 47.0763 152.559 47.4293C153.088 47.7601 153.507 48.2344 153.816 48.8521C154.147 49.4476 154.312 50.2418 154.312 51.2344C154.29 52.58 153.926 53.6609 153.221 54.4771C152.515 55.2712 151.599 55.8447 150.474 56.1977C149.371 56.5285 148.169 56.694 146.868 56.694Z" fill="#FFF4DE"/>
<path d="M164.45 56.6939C162.774 56.6939 161.285 56.352 159.983 55.6682C158.704 54.9623 157.7 53.9697 156.972 52.6903C156.267 51.3888 155.914 49.8447 155.914 48.0579C155.914 45.1461 156.63 42.8961 158.064 41.3079C159.52 39.6976 161.594 38.8924 164.285 38.8924C166.138 38.8924 167.627 39.2895 168.752 40.0836C169.899 40.8777 170.737 42.0358 171.267 43.5579C171.796 45.0799 172.05 46.9329 172.028 49.1167H159.289L158.759 45.9733H167.958L167.23 47.5285C167.208 45.7417 166.954 44.4844 166.469 43.7564C165.983 43.0285 165.189 42.6645 164.086 42.6645C163.469 42.6645 162.906 42.8189 162.399 43.1277C161.914 43.4366 161.528 43.9549 161.241 44.6829C160.976 45.3888 160.844 46.3704 160.844 47.6277C160.844 49.216 161.219 50.4403 161.969 51.3006C162.741 52.1608 163.965 52.591 165.642 52.591C166.259 52.591 166.866 52.5248 167.461 52.3925C168.079 52.2381 168.653 52.0616 169.182 51.8631C169.711 51.6645 170.164 51.4881 170.539 51.3336V55.5689C169.744 55.8998 168.851 56.1645 167.858 56.3631C166.888 56.5837 165.752 56.6939 164.45 56.6939Z" fill="#FFF4DE"/>
<path d="M23.3564 56.694C22.3416 56.694 21.3821 56.5947 20.4777 56.3962C19.5953 56.2197 18.8122 55.9219 18.1284 55.5028C17.4666 55.0616 16.9482 54.4771 16.5732 53.7491C16.1982 52.9991 16.0107 52.0726 16.0107 50.9697C16.0107 49.9329 16.2203 49.0285 16.6394 48.2565C17.0806 47.4844 17.7424 46.8888 18.6247 46.4697C19.5071 46.0506 20.6211 45.841 21.9666 45.841C22.7166 45.841 23.4446 45.9182 24.1505 46.0726C24.8564 46.227 25.485 46.4366 26.0365 46.7013C26.61 46.966 27.0622 47.2528 27.3931 47.5616L27.5917 49.944C27.1505 49.6793 26.6211 49.4697 26.0034 49.3153C25.3858 49.1609 24.724 49.0837 24.0181 49.0837C22.9372 49.0837 22.1431 49.2491 21.6358 49.58C21.1505 49.8888 20.9078 50.3851 20.9078 51.069C20.9078 51.4881 21.0291 51.8631 21.2718 52.194C21.5144 52.5248 21.8343 52.7785 22.2313 52.955C22.6505 53.1315 23.0806 53.2197 23.5218 53.2197C24.6468 53.2197 25.4299 53.1425 25.8711 52.9881C26.3343 52.8337 26.5659 52.5248 26.5659 52.0616V45.9072C26.5659 44.8925 26.235 44.1645 25.5733 43.7234C24.9336 43.2601 24.0181 43.0285 22.8269 43.0285C21.8563 43.0285 20.8747 43.205 19.8821 43.5579C18.9115 43.8888 18.1174 44.2969 17.4997 44.7822V40.4145C18.0732 40.0616 18.9556 39.7307 20.1468 39.4219C21.36 39.113 22.7166 38.9586 24.2166 38.9586C24.7461 38.9586 25.3306 39.0028 25.9703 39.091C26.61 39.1792 27.2497 39.3447 27.8895 39.5873C28.5292 39.8079 29.1137 40.1388 29.6431 40.58C30.1946 41.0211 30.6358 41.5836 30.9667 42.2675C31.2976 42.9513 31.463 43.8006 31.463 44.8153L31.4299 52.7234C31.4299 53.6719 31.1101 54.444 30.4703 55.0396C29.8306 55.6131 28.9042 56.0322 27.6909 56.2969C26.4997 56.5616 25.0549 56.694 23.3564 56.694Z" fill="#FFF4DE"/>
<path d="M41.6501 56.694C40.7237 56.694 39.7972 56.6278 38.8707 56.4954C37.9663 56.3851 37.1391 56.1756 36.3891 55.8668C35.6611 55.5359 35.0766 55.0947 34.6354 54.5432C34.1942 53.9697 33.9736 53.2307 33.9736 52.3263V33.2674H38.8045V42.3998L37.8781 40.8447C38.2751 40.3814 38.7825 40.0174 39.4001 39.7527C40.0178 39.466 40.6464 39.2674 41.2862 39.1571C41.9259 39.0469 42.4553 38.9917 42.8744 38.9917C45.345 38.9917 47.22 39.7417 48.4994 41.2417C49.8009 42.7197 50.4516 44.8925 50.4516 47.7601C50.4516 49.4366 50.231 50.8484 49.7899 51.9954C49.3487 53.1425 48.731 54.0579 47.9369 54.7418C47.1428 55.4256 46.2163 55.9219 45.1575 56.2307C44.0987 56.5396 42.9295 56.694 41.6501 56.694ZM41.584 52.591C42.5545 52.591 43.3266 52.4035 43.9001 52.0285C44.4737 51.6315 44.8818 51.091 45.1244 50.4072C45.3891 49.7234 45.5215 48.9403 45.5215 48.0579C45.5215 46.8006 45.356 45.7969 45.0251 45.0469C44.6943 44.2969 44.242 43.7564 43.6685 43.4255C43.095 43.0947 42.4332 42.9292 41.6832 42.9292C41.242 42.9292 40.7567 42.9844 40.2273 43.0947C39.6979 43.205 39.2236 43.3814 38.8045 43.6241V51.0359C38.8045 51.4329 38.9259 51.7417 39.1685 51.9623C39.4111 52.1829 39.742 52.3484 40.1612 52.4587C40.6023 52.5469 41.0766 52.591 41.584 52.591Z" fill="#FFF4DE"/>
<path d="M60.9831 56.6939C59.3066 56.6939 57.8176 56.352 56.5162 55.6682C55.2367 54.9623 54.2331 53.9697 53.5051 52.6903C52.7992 51.3888 52.4463 49.8447 52.4463 48.0579C52.4463 45.1461 53.1632 42.8961 54.597 41.3079C56.0529 39.6976 58.1265 38.8924 60.8176 38.8924C62.6706 38.8924 64.1596 39.2895 65.2846 40.0836C66.4316 40.8777 67.2699 42.0358 67.7993 43.5579C68.3287 45.0799 68.5824 46.9329 68.5603 49.1167H55.8213L55.2919 45.9733H64.4904L63.7625 47.5285C63.7404 45.7417 63.4868 44.4844 63.0015 43.7564C62.5162 43.0285 61.7221 42.6645 60.6191 42.6645C60.0015 42.6645 59.439 42.8189 58.9316 43.1277C58.4463 43.4366 58.0603 43.9549 57.7735 44.6829C57.5088 45.3888 57.3765 46.3704 57.3765 47.6277C57.3765 49.216 57.7515 50.4403 58.5015 51.3006C59.2735 52.1608 60.4978 52.591 62.1743 52.591C62.7919 52.591 63.3985 52.5248 63.9941 52.3925C64.6118 52.2381 65.1853 52.0616 65.7147 51.8631C66.2441 51.6645 66.6963 51.4881 67.0713 51.3336V55.5689C66.2772 55.8998 65.3838 56.1645 64.3912 56.3631C63.4206 56.5837 62.2846 56.6939 60.9831 56.6939Z" fill="#FFF4DE"/>
<path d="M70.7383 56.1977V41.2086C71.0471 40.9439 71.5986 40.6461 72.3927 40.3153C73.1868 39.9623 74.0912 39.6535 75.1059 39.3888C76.1427 39.102 77.1795 38.9586 78.2162 38.9586C79.253 38.9586 80.0692 39.0358 80.6648 39.1903C81.2604 39.3447 81.7126 39.5432 82.0214 39.7858V43.3925C81.6464 43.3042 81.1721 43.2381 80.5986 43.1939C80.0251 43.1498 79.4295 43.1278 78.8118 43.1278C78.1942 43.1057 77.6096 43.1057 77.0582 43.1278C76.5067 43.1498 76.0434 43.1939 75.6684 43.2601V56.1977H70.7383Z" fill="#FFF4DE"/>
<path d="M75.6448 58.955H70.6553V69.4592H182V23.5032L126.328 0L70.6553 23.5032V36.3709H75.6448V26.7858L126.328 5.38342L177.011 26.7858V64.4697H75.6448V58.955Z" fill="#FFF4DE"/>
</svg>
